<svg xmlns="http://www.w3.org/2000/svg" viewBox="0 0 2342.29 2285.69"><g id="uAA5tL"><path d="M-219.22,834.32c26.95-87,66.68-167.62,125.64-237.32C-68.3,567.12-38,541.51-10,514l13,8L-24.67,792.74l7.87,6.07c76-77.2,143.23-165.44,254.21-212-9.08,54.43-17.24,103.31-26.13,156.58,73-30.3,120.35-109.95,211-86.76-28.4,39.23-59.65,75.91-83.7,116.83-68.12,116-100.05,238.08-54.67,371.71,55.61,163.74,221.69,231,374,149.45,80.38-43,141.12-107.79,193.7-180.92,9.14-12.72,18-25.64,29.44-42,61.36,51.12,122,100.66,181,152.11,7.06,6.17,10.87,26.2,6.3,34C983.94,1403.1,889.16,1537.39,731,1614.68c-232.41,113.56-547.4,79.17-714.58-145.2-4.68-6.29-9.1-13.51-15.37-17.72-7.91-5.31-21.32-13.52-25.71-10.57-8.08,5.41-15.71,18.1-15.64,27.7.14,20.12,5.39,40.19,9.88,68.75-80.17-79.88-126.06-168.91-148.67-270.61-27.39-123.23-16.82-244.57,18.53-364.78,7.08-24.07,10.75-49.15,16-73.76l-14.15-10-60.47,47.37Z" transform="translate(219.22 568.04)"/><path d="M666.2,582.15c25,62.19,68,78.89,121.56,82.86,82,6.08,95.93,19.57,110.35,99,6.42,35.35,26.67,55.63,61.25,53.62,75.7-4.38,132.26,31.07,186.55,77.91,71.44,61.63,145.47,120.26,218.62,179.89,40.43,33,83.31,55.55,136.75,29.44,53.1-25.93,71.31-69.9,66.52-126.25-.16-1.86,2.14-3.94,3.3-5.92,95.45,63.28,107.38,196.32,27.71,307.24,106.8,45.69,251.73-46.13,246.12-156.28-3.17-62.35-44.66-97.61-91.6-130.78,95.07-4.49,176.78,27.53,240.22,99.12,73.49,82.93,92.14,177.51,45.29,280.73-52.7,116.12-169.73,178.84-324.4,175.24,27.76,40.41,103.31,61,213.18,55-98,92.91-209.09,127.64-332.26,110.36-157.58-22.11-234.29-129.74-264.54-277.85-56.41,40.46-63.45,127.53-14.78,221-16.9-7-29.11-10.24-39.28-16.66-70.14-44.37-110.48-106.81-111.56-191.32-.44-34.06.36-68.25,3-102.21,6.22-80.54-26.79-141.59-88.47-190.87-67.58-54-133.76-109.76-200.5-164.8-46.62-38.45-76-84.68-75.78-148.23.19-57.05-36.44-93.3-80.65-122.63C677.1,689.54,653.76,649.43,666.2,582.15Z" transform="translate(219.22 568.04)"/><path d="M184.56,149.17c-17.42-51.5-36.24-99.51-16-158,43,78.51,113,117.47,180.85,159.76,58.22,36.27,114.07,76.32,175.41,113.37-22.63-27.09-40.94-60.27-68.78-80-58.41-41.4-71.92-98.8-66.61-162.09,4.35-51.79,18.42-102.76,35.66-153.87,13.9,112.1,80.85,187,157.36,257.19C653.75,190.92,722.71,258.94,796,325c-9-14.46-15.95-30.84-27.36-43.06-57.2-61.28-114.06-123-174-181.6C536.37,43.27,523.6-28,566.08-103.92,584.05,9,657.29,82.54,733.31,155.85,789.75,210.28,846,266.57,891.86,329.66c25.93,35.66,30.16,86.9,45.22,130.76,5.33,15.52,12.94,30.44,21.06,44.76,9.41,16.61,20.53,32.25,33.57,52.41l59-44.71c21.13,70.6-32,188.4-109.18,233.27C938.19,704.18,940,657,892.79,641c-39.23-13.29-81.69-17-124.5-25.33,1.11-4.18,2.15-10.45,4.42-16.24,26.27-67.08,17.86-85-53.17-85.4-67.34-.42-134.75,8.91-202.13,14q-.21,7.14-.41,14.27l88.52,14.57c-7.25,23.26-14.41,44.8-20.67,66.61-13.42,46.71-3.33,61.63,43.56,65.52,1.34,99.63,1.34,99.63,58.42,100.37-14,51.85-100.34,104.11-174.78,105.74,17.33-21.5,34.77-43.13,59.13-73.37l-83.86,5.18c48.54-61.15,73.84-124.8,23.55-186.56C456,572.86,380.73,578.76,301.43,609.14c22.74-70.77,81.7-103.2,133.13-148.75l-87.47-26.94Q346,427.24,344.86,421l176.47-54.37c-84.48-24.4-242.11,24.39-292.65,95.65l73.38,16.82L53,625.39c3.35-19.51,7.32-40.24,10.43-61.1,12.2-81.78-25.22-124.92-108.32-125.16-24.52-.07-49,0-84.22,0,20.24-14.06,32.81-24,46.46-32.06,53-31.39,106.77-61.5,159.44-93.41,55.27-33.49,58.53-52.76,17.69-101-21-24.79-44-47.83-69.8-75.68Zm502,202.73C702.14,430,738.93,466.22,791,457.07,772.84,407.08,740.54,373.29,686.56,351.9Z" transform="translate(219.22 568.04)"/><path d="M875.57,190.76c-64.18-59.94-128.93-119-191.24-180.56-7.09-7-1.66-28.08,0-42.37,6.45-53.91,23.44-108.58,18.67-161.36-9.31-103-78.76-163.58-168.57-161.72-88.73,1.83-156.88,71.08-171.94,169.16C350.12-105.3,333-25.24,318,55.33,219.75,10.55,210.28-96.15,154.81-180.55l-69,240.87C73,13.81,54.94-29,50-73.25,16.88-371.16,246.15-555.48,481.2-566.87c102.16-5,201.93,4.52,294.13,53.24C943.64-424.69,1027.62-230.87,981.09-42.5,959.51,44.82,918.94,123,875.57,190.76Z" transform="translate(219.22 568.04)"/><path d="M1621.57,385c-179.19,2.54-322.31,87-457.84,212.51,49.15-125.83,121.9-219.29,225.09-290.83,1.72,4.8,3.56,7.24,3.15,9.21-3.76,18.11-7.91,36.14-11.94,54.19,18.32-5.93,39-8.26,54.57-18.43,68.66-44.88,127.1-106.28,210-127.85,2.25-.58,4.85.21,12.39.67-19.59,14.44-38.32,24.44-51.55,39.33-8.88,10-10,26.89-14.55,40.71,13,1.64,26.43,6.35,38.84,4.42,65.61-10.24,130.69-29.32,196.46-31.79,96.35-3.61,238.77,70.46,296.92,141.19-59.84,6.47-122.23,9.25-182.83,21.14-41.68,8.18-80.34,30.71-121.41,43.4-17.9,5.53-41.36,9.18-57.34,2.25-118.5-51.36-254.62-25.42-333.75,78.1-65,85-118.52,178.7-176.79,268.77-9.17,14.18-16.52,29.55-25.62,46L1074.82,765.63C1218.43,585.22,1382.66,432.82,1621.57,385Z" transform="translate(219.22 568.04)"/></g></svg>