<?xml version="1.0" encoding="UTF-8"?>
<svg width="2343px" height="2286px" viewBox="0 0 2343 2286" version="1.1" xmlns="http://www.w3.org/2000/svg" xmlns:xlink="http://www.w3.org/1999/xlink">
    <!-- Generator: Sketch 57.1 (83088) - https://sketch.com -->
    <title>Group 14</title>
    <desc>Created with Sketch.</desc>
    <defs>
        <polygon id="path-1" points="0 0.3042 1289.59895 0.3042 1289.59895 1164.20119 0 1164.20119"></polygon>
        <polygon id="path-3" points="0.0967651109 0.5002 1401.70382 0.5002 1401.70382 1136 0.0967651109 1136"></polygon>
        <polygon id="path-5" points="0.0275272321 0.311 947.024276 0.311 947.024276 759.114 0.0275272321 759.114"></polygon>
    </defs>
    <g id="Page-1" stroke="none" stroke-width="1" fill="none" fill-rule="evenodd">
        <g id="Group-14" transform="translate(0.000000, -1.000000)">
            <g id="Group-3" transform="translate(0.000000, 1082.690000)">
                <mask id="mask-2" fill="white">
                    <use xlink:href="#path-1"></use>
                </mask>
                <g id="Clip-2"></g>
                <path d="M-0.0001,320.6702 C26.9509,233.6522 66.6829,153.0522 125.6439,83.3522 C150.9169,53.4752 181.2259,27.8572 209.2469,0.3042 C213.5879,2.9842 217.9289,5.6652 222.2709,8.3452 C213.0289,98.5952 203.7869,188.8452 194.5449,279.0942 C197.1689,281.1162 199.7919,283.1382 202.4159,285.1602 C278.4379,207.9572 345.6519,119.7172 456.6249,73.1972 C447.5439,127.6282 439.3899,176.5082 430.5019,229.7782 C503.4529,199.4792 550.8539,119.8292 641.5249,143.0222 C613.1239,182.2502 581.8749,218.9342 557.8329,259.8532 C489.7099,375.8002 457.7769,497.9342 503.1569,631.5582 C558.7639,795.2972 724.8439,862.5582 877.1719,781.0142 C957.5449,737.9892 1018.2849,673.2212 1070.8639,600.0852 C1080.0059,587.3682 1088.8719,574.4512 1100.3109,558.1402 C1161.6709,609.2612 1222.3279,658.7952 1281.3079,710.2532 C1288.3709,716.4162 1292.1799,736.4512 1287.6099,744.3052 C1203.1609,889.4482 1108.3829,1023.7362 950.1919,1101.0292 C717.7789,1214.5882 402.7929,1180.1982 235.6129,955.8332 C230.9249,949.5402 226.5129,942.3192 220.2419,938.1082 C212.3329,932.7972 198.9229,924.5902 194.5279,927.5372 C186.4479,932.9542 178.8219,945.6422 178.8889,955.2442 C179.0279,975.3562 184.2839,995.4322 188.7679,1023.9902 C108.5959,944.1062 62.7109,855.0832 40.0999,753.3782 C12.7039,630.1542 23.2809,508.8112 58.6309,388.6032 C65.7099,364.5292 69.3779,339.4532 74.6179,314.8402 C69.8999,311.4912 65.1819,308.1432 60.4639,304.7942 C40.3089,320.5832 20.1549,336.3722 -0.0001,352.1612 L-0.0001,320.6702 Z" id="Fill-1" fill="#000000" mask="url(#mask-2)"></path>
            </g>
            <g id="Group-6" transform="translate(882.000000, 1150.690000)">
                <mask id="mask-4" fill="white">
                    <use xlink:href="#path-3"></use>
                </mask>
                <g id="Clip-5"></g>
                <path d="M3.414,0.5002 C28.388,62.6932 71.47,79.3872 124.982,83.3562 C206.995,89.4402 220.908,102.9292 235.332,182.4082 C241.749,217.7622 261.997,238.0392 296.58,236.0342 C372.275,231.6462 428.839,267.1012 483.131,313.9432 C554.564,375.5742 628.6,434.1972 701.748,493.8312 C742.179,526.7922 785.062,549.3752 838.504,523.2722 C891.599,497.3392 909.804,453.3652 905.015,397.0232 C904.856,395.1582 907.159,393.0842 908.321,391.0982 C1003.772,454.3762 1015.7,587.4152 936.027,698.3412 C1042.83,744.0282 1187.761,652.2092 1182.152,542.0592 C1178.977,479.7122 1137.484,444.4512 1090.552,411.2822 C1185.614,406.7912 1267.324,438.8122 1330.769,510.4042 C1404.26,593.3322 1422.911,687.9082 1376.062,791.1292 C1323.356,907.2552 1206.324,969.9692 1051.654,966.3662 C1079.414,1006.7822 1154.974,1027.3632 1264.835,1021.3612 C1166.799,1114.2682 1055.749,1149.0032 932.576,1131.7222 C775.001,1109.6132 698.285,1001.9792 668.04,853.8722 C611.628,894.3312 604.59,981.3992 653.254,1074.9082 C636.357,1067.8692 624.148,1064.6742 613.983,1058.2452 C543.835,1013.8792 503.5,951.4372 502.414,866.9332 C501.976,832.8732 502.779,798.6752 505.4,764.7242 C511.619,684.1832 478.61,623.1332 416.933,573.8492 C349.352,519.8472 283.17,464.0942 216.425,409.0472 C169.804,370.5992 140.448,324.3652 140.653,260.8142 C140.836,203.7682 104.209,167.5162 60.002,138.1942 C14.316,107.8922 -9.024,67.7772 3.414,0.5002" id="Fill-4" fill="#000000" mask="url(#mask-4)"></path>
            </g>
            <path d="M905.7807,920.9442 C921.3627,999.0812 958.1467,1035.2602 1010.2007,1026.1112 C992.0587,976.1202 959.7597,942.3262 905.7807,920.9442 M403.7767,718.2122 C386.3637,666.7052 367.5417,618.7002 387.7577,560.1622 C430.7327,638.6732 500.7187,677.6262 568.6137,719.9222 C626.8237,756.1862 682.6777,796.2352 744.0137,833.2872 C721.3877,806.1982 703.0797,773.0172 675.2387,753.2862 C616.8297,711.8922 603.3187,654.4902 608.6307,591.2002 C612.9767,539.4132 627.0497,488.4432 644.2857,437.3282 C658.1897,549.4252 725.1337,624.3242 801.6457,694.5242 C872.9697,759.9642 941.9317,827.9802 1015.2547,894.0292 C1006.2517,879.5692 999.3057,863.1892 987.9007,850.9712 C930.6967,789.6942 873.8377,727.9602 813.9347,669.3742 C755.5837,612.3062 742.8187,541.0232 785.3027,465.1212 C803.2647,578.0322 876.5077,651.5802 952.5307,724.8932 C1008.9717,779.3212 1065.2297,835.6122 1111.0837,898.6962 C1137.0077,934.3612 1141.2407,985.5972 1156.3017,1029.4562 C1161.6317,1044.9752 1169.2407,1059.9022 1177.3587,1074.2222 C1186.7737,1090.8292 1197.8927,1106.4692 1210.9237,1126.6312 C1230.0697,1112.1332 1250.3147,1096.8022 1269.9647,1081.9212 C1291.0977,1152.5212 1237.9887,1270.3242 1160.7907,1315.1912 C1157.4057,1273.2192 1159.2257,1226.0212 1112.0047,1210.0182 C1072.7827,1196.7272 1030.3197,1193.0012 987.5037,1184.6912 C988.6167,1180.5102 989.6577,1174.2382 991.9267,1168.4472 C1018.1997,1101.3712 1009.7907,1083.4922 938.7637,1083.0502 C871.4167,1082.6312 804.0097,1091.9602 736.6297,1097.0022 C736.4907,1101.7592 736.3527,1106.5162 736.2157,1111.2732 C764.1897,1115.8772 792.1647,1120.4802 824.7437,1125.8422 C817.4897,1149.1022 810.3247,1170.6442 804.0647,1192.4452 C790.6507,1239.1592 800.7407,1254.0792 847.6307,1257.9722 C848.9687,1357.6022 848.9687,1357.6022 906.0497,1358.3382 C892.1007,1410.1882 805.7127,1462.4532 731.2737,1464.0812 C748.5987,1442.5812 766.0337,1420.9452 790.4017,1390.7072 C756.9797,1392.7712 734.9927,1394.1312 706.5337,1395.8882 C755.0807,1334.7402 780.3837,1271.0872 730.0847,1209.3322 C675.1647,1141.9042 599.9457,1147.7982 520.6437,1178.1782 C543.3847,1107.4132 602.3477,1074.9822 653.7827,1029.4302 C621.5637,1019.5082 593.9337,1011.0012 566.3037,1002.4922 C565.5617,998.3462 564.8187,994.2012 564.0767,990.0552 C623.8577,971.6362 683.6377,953.2182 740.5477,935.6842 C656.0697,911.2812 498.4347,960.0672 447.8947,1031.3312 C475.6307,1037.6902 501.6367,1043.6512 521.2757,1048.1532 C441.6857,1094.8982 358.6717,1143.6552 272.2187,1194.4312 C275.5727,1174.9232 279.5397,1154.1902 282.6507,1133.3302 C294.8447,1051.5472 257.4247,1008.4122 174.3327,1008.1732 C149.8087,1008.1022 125.2847,1008.1622 90.1097,1008.1622 C110.3487,994.1012 122.9147,984.1812 136.5667,976.0962 C189.5667,944.7072 243.3377,914.6032 296.0127,882.6872 C351.2787,849.2002 354.5397,829.9332 313.7027,781.6652 C292.7347,756.8822 269.7147,733.8352 243.9027,705.9902 C298.6787,710.1782 349.4727,714.0602 403.7767,718.2122" id="Fill-7" fill="#000000"></path>
            <g id="Group-11" transform="translate(266.000000, 0.690000)">
                <mask id="mask-6" fill="white">
                    <use xlink:href="#path-5"></use>
                </mask>
                <g id="Clip-10"></g>
                <path d="M828.7865,759.114 C764.6075,699.166 699.8555,640.095 637.5525,578.546 C630.4575,571.536 635.8845,550.473 637.5935,536.177 C644.0355,482.273 661.0315,427.596 656.2605,374.82 C646.9515,271.839 577.4975,211.24 487.6885,213.098 C398.9625,214.934 330.8075,284.184 315.7455,382.262 C303.3385,463.045 286.2385,543.107 271.1835,623.677 C172.9675,578.896 163.4985,472.201 108.0235,387.804 C85.8105,465.378 63.5985,542.951 39.0525,628.671 C26.2265,582.161 8.1545,539.363 3.2325,495.102 C-29.8975,197.194 199.3695,12.868 434.4195,1.481 C536.5745,-3.468 636.3495,5.997 728.5435,54.717 C896.8615,143.664 980.8415,337.479 934.3045,525.85 C912.7325,613.166 872.1595,691.336 828.7865,759.114" id="Fill-9" fill="#000000" mask="url(#mask-6)"></path>
            </g>
            <path d="M1840.7899,954.0081 C1661.6019,956.5541 1518.4779,1041.0271 1382.9519,1166.5241 C1432.0949,1040.6941 1504.8509,947.2321 1608.0409,875.6891 C1609.7619,880.4881 1611.6029,882.9281 1611.1929,884.9011 C1607.4339,903.0111 1603.2819,921.0411 1599.2449,939.0941 C1617.5719,933.1571 1638.2609,930.8311 1653.8189,920.6591 C1722.4759,875.7751 1780.9199,814.3841 1863.7829,792.8111 C1866.0239,792.2271 1868.6239,793.0161 1876.1679,793.4791 C1856.5739,807.9201 1837.8489,817.9211 1824.6169,832.8051 C1815.7379,842.7941 1814.6439,859.7041 1810.0669,873.5171 C1823.0419,875.1611 1836.4959,879.8741 1848.9119,877.9371 C1914.5189,867.6991 1979.5969,848.6201 2045.3649,846.1521 C2141.7159,842.5351 2284.1359,916.6121 2342.2849,987.3441 C2282.4479,993.8141 2220.0569,996.5901 2159.4549,1008.4841 C2117.7809,1016.6631 2079.1159,1039.1931 2038.0469,1051.8821 C2020.1459,1057.4131 1996.6859,1061.0611 1980.7069,1054.1331 C1862.2069,1002.7651 1726.0939,1028.7131 1646.9629,1132.2291 C1581.9979,1217.2141 1528.4379,1310.9321 1470.1689,1401.0041 C1460.9949,1415.1821 1453.6499,1430.5451 1444.5479,1447.0111 C1394.1919,1409.4261 1345.2829,1372.9221 1294.0369,1334.6721 C1437.6449,1154.2561 1601.8819,1001.8631 1840.7899,954.0081" id="Fill-12" fill="#000000"></path>
        </g>
    </g>
</svg>